HIERARCHY
ROOT Hips
{
  OFFSET -10.0563 7.73376 -472.55
  CHANNELS 6 Xposition Yposition Zposition Zrotation Xrotation Yrotation
  JOINT Spine
  {
    OFFSET 0 0 0
    CHANNELS 3 Zrotation Xrotation Yrotation
    JOINT Spine1
    {
      OFFSET 19 0 0
      CHANNELS 3 Zrotation Xrotation Yrotation
      JOINT Neck
      {
        OFFSET 22.5 0.6 0
        CHANNELS 3 Zrotation Xrotation Yrotation
        JOINT Head
        {
          OFFSET 14 0.0308777 0
          CHANNELS 3 Zrotation Xrotation Yrotation
          End Site
          {
            OFFSET 17 0 0
          }
        }
      }
      JOINT LeftShoulder
      {
        OFFSET 19.8 3.7 4.3
        CHANNELS 3 Zrotation Xrotation Yrotation
        JOINT LeftArm
        {
          OFFSET 8 0 0
          CHANNELS 3 Zrotation Xrotation Yrotation
          JOINT LeftForeArm
          {
            OFFSET 15.2 0 0
            CHANNELS 3 Zrotation Xrotation Yrotation
            JOINT LeftHand
            {
              OFFSET 17.8 0 0
              CHANNELS 3 Zrotation Xrotation Yrotation
              End Site
              {
                OFFSET 7.2 0 0
              }
            }
          }
        }
      }
      JOINT RightShoulder
      {
        OFFSET 19.8 3.7 -4.3
        CHANNELS 3 Zrotation Xrotation Yrotation
        JOINT RightArm
        {
          OFFSET 8 0 0.151654
          CHANNELS 3 Zrotation Xrotation Yrotation
          JOINT RightForeArm
          {
            OFFSET 15.2 0 0
            CHANNELS 3 Zrotation Xrotation Yrotation
            JOINT RightHand
            {
              OFFSET 17.8 0 0
              CHANNELS 3 Zrotation Xrotation Yrotation
              End Site
              {
                OFFSET 7.2 0 0
              }
            }
          }
        }
      }
    }
  }
  JOINT LeftUpLeg
  {
    OFFSET 5.98425 -7.666 4.78879
    CHANNELS 3 Zrotation Xrotation Yrotation
    JOINT LeftLeg
    {
      OFFSET 16 0 0
      CHANNELS 3 Zrotation Xrotation Yrotation
      JOINT LeftFoot
      {
        OFFSET 18 0 0
        CHANNELS 3 Zrotation Xrotation Yrotation
        End Site
        {
          OFFSET 0 -10.8 0
        }
      }
    }
  }
  JOINT RightUpLeg
  {
    OFFSET 5.98425 -7.66598 -4.78879
    CHANNELS 3 Zrotation Xrotation Yrotation
    JOINT RightLeg
    {
      OFFSET 16 0 0
      CHANNELS 3 Zrotation Xrotation Yrotation
      JOINT RightFoot
      {
        OFFSET 18 0 0
        CHANNELS 3 Zrotation Xrotation Yrotation
        End Site
        {
          OFFSET 0 -10.8 0
        }
      }
    }
  }
  JOINT Tail
  {
    OFFSET 6.83696 -0.722574 0
    CHANNELS 3 Zrotation Xrotation Yrotation
    JOINT Tail1
    {
      OFFSET 12 0 0
      CHANNELS 3 Zrotation Xrotation Yrotation
      End Site
      {
        OFFSET 12 0 0
      }
    }
  }
}
MOTION
Frames:	12
Frame Time:	0.0166667
27.6501 45.5179 -463.149 -21.6936 -0.352695 44.1584 -154.234 7.28375 -15.0326 -6.19251 -0.337567 50.5775 -8.27742 -16.1962 33.238 -127.864 61.8781 118.047 -112.337 -41.3083 -134.539 105.822 -34.6493 -150.078 -61.8752 -61.4689 26.8066 23.2474 -0.0678536 -47.3118 75.4309 -27.1693 37.7626 59.7468 -43.6998 -34.1858 -71.5657 -17.5442 3.18536 -8.7124 -0.132005 1.86355 -127.371 -2.47131 -20.1593 73.9137 9.44527 7.91412 35.7064 -3.3431 -6.11025 -128.891 12.5521 25.332 87.2468 -21.8708 -11.9756 58.8957 4.18432 1.28707 -10.3775 1.21846 -18.9999 2.43039 -4.17897 -6.42348 
27.804 45.523 -462.889 -20.8915 1.2702 42.1443 -155.213 7.05407 -14.3071 -6.68554 -0.793959 49.0548 -9.54684 -16.3546 31.1909 -126.843 60.2252 117.323 -112.479 -41.6358 -134.333 112.149 -34.2521 -146.201 -61.0041 -62.7141 28.7648 26.3037 -0.513356 -43.9223 75.3817 -27.2749 37.8771 57.8171 -45.3314 -37.2713 -70.1682 -17.9262 4.11511 -8.68823 -0.0766959 1.48144 -128.478 -2.30076 -19.8702 73.7597 8.48532 7.732 35.9653 -3.23557 -5.92433 -129.701 11.8415 24.121 88.0202 -21.4727 -11.2735 58.2219 4.07005 1.23064 -8.88922 0.622903 -25.0226 3.21411 -0.556722 -8.85166 
28.0089 45.5783 -462.803 -21.0785 1.75404 39.5439 -154.448 6.48198 -14.6079 -7.99952 -1.41791 47.7099 -10.6975 -16.0933 29.5686 -124.213 60.8335 116.645 -112.909 -41.64 -135.322 117.453 -32.3789 -141.935 -66.1548 -58.5506 24.778 26.3344 -0.0260684 -38.4967 75.7145 -26.9479 38.2002 55.5385 -46.7423 -39.8382 -68.1323 -18.648 5.17833 -8.46051 0.0819515 0.730957 -128.311 -2.42215 -19.8397 74.2852 7.18489 7.66082 36.3736 -3.14363 -5.78885 -128.958 10.5096 23.2397 88.6649 -21.7568 -10.466 56.0051 3.94631 1.35489 -5.86799 -0.1924 -30.1302 4.38324 2.0417 -11.0726 
28.1338 45.5342 -462.76 -21.3028 2.55359 37.236 -154.144 6.10399 -14.6362 -9.0312 -1.77464 46.1729 -12.1911 -16.034 27.8606 -124.056 61.9038 116.299 -113.009 -41.5115 -135.766 122.478 -30.1 -137.084 -70.5147 -51.3005 19.4085 26.4424 0.835076 -29.1192 75.8542 -26.8233 38.3761 53.2582 -48.0303 -43.0193 -65.8814 -19.4194 6.46926 -8.36272 0.20075 0.118079 -128.465 -2.40695 -20.65 74.9735 6.44339 7.82736 36.1648 -3.04406 -5.64959 -128.798 9.17923 22.2784 89.5064 -20.8646 -9.84336 54.2455 3.66946 1.25123 -3.24092 -1.34903 -34.9418 5.7279 3.48059 -12.5538 
28.1628 45.4201 -462.751 -21.5816 3.29782 34.9784 -153.852 5.71757 -14.8527 -10.0532 -2.08755 44.7847 -13.79 -16.141 26.0784 -124.406 62.7403 115.902 -113.116 -41.1701 -136.585 126.078 -27.1301 -133.123 -73.9935 -37.0643 14.2215 21.4309 1.93233 -15.3775 76.0812 -26.6079 38.6308 50.7294 -49.1121 -45.778 -63.5457 -19.8686 7.17699 -7.83544 0.465453 -1.03157 -128.825 -2.12694 -20.9878 76.4014 5.11181 7.49924 35.7207 -2.80406 -5.30891 -128.864 7.65075 21.2867 90.3114 -18.9368 -9.27917 52.2336 3.14984 0.903031 -1.20828 -2.2559 -39.0193 7.3476 4.21907 -13.5976 
28.0688 45.2822 -462.768 -21.8281 4.01261 32.9169 -154.239 5.2508 -14.5717 -10.015 -2.10977 42.8391 -15.6669 -16.0105 24.8083 -125.479 64.1149 116.044 -113.286 -41.055 -137.171 129.661 -24.2536 -129.367 -72.3863 -22.2506 10.8923 12.2005 1.62036 -6.60167 76.2422 -26.4601 38.8302 47.4256 -49.6607 -49.6673 -60.126 -20.4282 8.2052 -8.50551 0.668148 -1.57664 -129.139 -1.74129 -21.4194 77.8753 3.95667 7.22422 35.2283 -2.56595 -4.96439 -128.65 6.30315 20.3308 90.0524 -17.3839 -8.8854 51.2026 2.68999 0.521656 0.249382 -2.92426 -42.3786 8.95784 4.60497 -14.4131 
27.8979 45.1524 -462.844 -22.0885 4.60267 31.0634 -154.816 4.65032 -14.6197 -9.64245 -2.25569 41.5393 -17.6805 -15.2151 23.0729 -127.313 64.9084 116.345 -113.099 -40.602 -137.513 132.916 -21.9883 -126.23 -68.4063 -12.247 8.43104 4.85077 0.984851 -5.05599 76.2773 -26.4737 39.0069 42.6955 -49.8539 -54.2992 -55.4592 -20.7502 9.08209 -9.90244 0.815267 -1.39805 -129.513 -1.46841 -22.2067 79.5367 3.32517 7.05413 34.7361 -2.35923 -4.66368 -128.266 5.00715 19.3826 89.2102 -15.1432 -8.6386 50.2887 2.13005 0.010267 1.11855 -3.24646 -44.7702 10.5574 4.87985 -15.3261 
27.6769 44.999 -462.958 -22.5314 5.19907 29.2652 -154.87 4.18073 -15.3568 -9.76081 -2.49942 41.3766 -19.7167 -14.9171 21.2002 -128.973 66.4485 116.545 -113.135 -40.5871 -137.624 134.111 -20.7728 -123.293 -65.0415 -8.77996 6.39217 3.40693 0.808896 -4.38247 78.6134 -22.4335 35.9426 45.6721 -48.9653 -46.6024 -58.9369 -20.3101 6.87945 -7.45095 1.09697 -2.82351 -129.696 -1.00825 -23.0608 81.3288 2.24375 6.70969 33.9425 -2.04157 -4.18133 -127.584 3.8682 18.2678 87.698 -12.787 -8.49975 49.963 1.60669 -0.514177 1.39708 -3.29864 -46.1653 12.088 5.28362 -16.4594 
27.3585 44.8386 -463.083 -22.9129 5.95164 27.5782 -155.267 3.72063 -15.9465 -9.44244 -2.57926 40.9332 -21.7623 -14.5754 19.3523 -130.982 67.1869 116.706 -113.136 -40.616 -137.575 135.123 -22.2686 -121.903 -63.5579 -8.91711 5.33176 3.90715 1.05525 -6.27339 78.9979 -21.7133 35.0956 43.3463 -49.0964 -47.378 -56.8067 -20.6306 6.39594 -7.67082 1.35682 -3.33991 -129.9 -0.130277 -23.7541 83.2759 0.909744 6.34836 33.4448 -1.67733 -3.66186 -126.771 2.93933 17.0125 85.4057 -10.2743 -8.38246 50.8707 1.10835 -1.08992 0.714121 -3.03264 -46.7041 13.281 6.08207 -17.8825 
26.9644 44.6545 -463.242 -23.2649 6.52382 26.107 -155.725 3.43592 -16.1765 -9.09641 -2.54825 40.3075 -23.9622 -14.6325 17.3252 -132.028 67.4659 116.338 -113.225 -40.7824 -137.497 134.928 -26.4268 -121.534 -63.8648 -8.23912 4.40604 4.49682 1.08505 -7.68042 79.1908 -21.386 34.7794 40.6632 -49.7046 -48.415 -54.6633 -20.9173 5.65284 -7.67894 1.65219 -3.89414 -129.967 0.677616 -24.5621 85.1587 0.353035 6.02755 32.8964 -1.38202 -3.22267 -125.73 2.17129 15.8337 82.5995 -8.33717 -8.33237 52.4463 0.751809 -1.53183 -0.626664 -2.30618 -46.5706 13.7238 7.37039 -18.954 
26.5104 44.4843 -463.461 -23.3433 7.04129 24.6336 -156.33 3.2601 -16.4722 -9.04013 -2.55206 39.785 -25.9952 -14.95 15.1366 -132.336 67.7384 115.659 -112.983 -40.6105 -137.228 134.584 -31.333 -121.525 -63.2058 -6.75725 3.64971 4.08002 1.04264 -8.51254 79.1651 -21.4507 34.9053 37.7123 -50.5212 -49.7668 -52.5375 -20.7562 4.83166 -6.67124 1.93165 -4.86923 -130.262 1.33755 -25.4379 86.9793 -0.200564 5.76126 32.493 -1.08773 -2.76678 -124.806 1.44613 14.6487 79.6248 -6.35525 -8.19115 54.4732 0.448047 -1.91734 -2.64051 -1.36526 -45.6605 13.4844 9.04777 -19.7723 
26.0568 44.3701 -463.757 -23.2986 7.52764 23.3696 -156.893 3.3707 -16.5707 -9.34006 -2.42164 39.1675 -27.9273 -15.5226 12.6408 -131.945 67.9472 114.616 -112.384 -39.9594 -136.94 136.512 -36.7135 -120.574 -59.1701 0.154029 0.960357 2.41679 0.290386 -5.37016 78.9305 -21.9102 35.5198 35.3605 -51.0865 -51.4143 -50.7546 -20.2021 4.33192 -4.2928 2.31666 -7.56458 -130.504 2.10599 -26.2675 88.5156 -0.667478 5.47156 32.1745 -0.820179 -2.35793 -123.758 0.997646 13.5511 76.2472 -5.98756 -8.10785 57.7269 0.458419 -2.02897 -5.31488 -0.24797 -44.3593 12.3724 11.1408 -19.7399 
